# xmcd
#
# Track frame offsets: 
#        150
#        15411
#        36978
#        61608
#        82543
#        111721
#        146333
#        170040
#        200778
#        223083
#        242926
#        272427
#        286453
#        307597
#        322004
#
# Disc length: 4487 seconds
#
# Revision: 1
# Processed by: cddbd v1.5.2PL0 Copyright (c) Steve Scherf et al.
# Submitted via: ExactAudioCopy v0.95b4
#
DISCID=d511850f
DTITLE=Tal Farlow - The Complete Verve Tal Farlow Sessions Disk 7
DYEAR=2004
DGENRE=Jazz
TTITLE0=A Foggy Day
TTITLE1=The Man In My Life
TTITLE2=Sweet Lorraine
TTITLE3=Wess Side
TTITLE4=Telefunky
TTITLE5=Blue Funk
TTITLE6=Saratoga
TTITLE7=Blues in the Night
TTITLE8=Hit the Road to Dreamland
TTITLE9=For Every Man There's a Woman
TTITLE10=As Long As I Live
TTITLE11=Between the Devil and the Deep Blue Sea
TTITLE12=Petticoat High
TTITLE13=One Step - Two Step
TTITLE14=Lessons in Love
EXTD=YEAR: 2004
EXTT0=
EXTT1=
EXTT2=
EXTT3=
EXTT4=
EXTT5=
EXTT6=
EXTT7=
EXTT8=
EXTT9=
EXTT10=
EXTT11=
EXTT12=
EXTT13=
EXTT14=
PLAYORDER=
